<svg width="76" height="76" viewBox="0 0 76 76" fill="none" xmlns="http://www.w3.org/2000/svg">
<path d="M40.8057 71.8788C34.476 73.6685 27.7316 73.3077 21.629 70.8529C15.5265 68.3981 10.4107 63.988 7.0832 58.3137C3.75574 52.6394 2.40465 46.0214 3.24162 39.4968C4.07859 32.9722 7.05634 26.9096 11.7083 22.2589L14.5091 19.458C19.0716 14.8952 24.9946 11.9405 31.384 11.0402C37.7733 10.1398 44.2821 11.3425 49.9278 14.4668L59.2133 5.34422C60.692 3.87866 62.6788 3.03954 64.7604 3.00136C66.842 2.96319 68.8581 3.72889 70.3897 5.13925C71.9212 6.5496 72.8502 8.49606 72.9834 10.5738C73.1166 12.6516 72.4439 14.7008 71.1051 16.2952L70.6538 16.7854L61.5278 26.0714C64.5441 31.5233 65.7718 37.785 65.0375 43.9723C64.3032 50.1596 61.644 55.96 57.4355 60.5544M27.5083 11.9186L64.0745 48.4868M34.1221 61.3246C34.1221 62.8572 34.4239 64.3748 35.0104 65.7908C35.5969 67.2067 36.4565 68.4933 37.5402 69.577C38.6238 70.6608 39.9103 71.5204 41.3262 72.1069C42.7421 72.6934 44.2596 72.9953 45.7922 72.9953C47.3247 72.9953 48.8422 72.6934 50.2581 72.1069C51.674 71.5204 52.9605 70.6608 54.0442 69.577C55.1278 68.4933 55.9874 67.2067 56.5739 65.7908C57.1604 64.3748 57.4622 62.8572 57.4622 61.3246C57.4622 59.792 57.1604 58.2744 56.5739 56.8584C55.9874 55.4425 55.1278 54.1559 54.0442 53.0722C52.9605 51.9885 51.674 51.1288 50.2581 50.5423C48.8422 49.9558 47.3247 49.6539 45.7922 49.6539C44.2596 49.6539 42.7421 49.9558 41.3262 50.5423C39.9103 51.1288 38.6238 51.9885 37.5402 53.0722C36.4565 54.1559 35.5969 55.4425 35.0104 56.8584C34.4239 58.2744 34.1221 59.792 34.1221 61.3246Z" stroke="white" stroke-width="5" stroke-linecap="round" stroke-linejoin="round"/>
</svg>
