<svg width="70" height="70" viewBox="0 0 70 70" fill="none" xmlns="http://www.w3.org/2000/svg">
<path d="M45.4998 23.3333V17.5C45.4998 15.9529 44.8853 14.4692 43.7913 13.3752C42.6973 12.2812 41.2136 11.6667 39.6665 11.6667H19.2498C17.7027 11.6667 16.219 12.2812 15.125 13.3752C14.0311 14.4692 13.4165 15.9529 13.4165 17.5V52.5C13.4165 54.0471 14.0311 55.5308 15.125 56.6248C16.219 57.7187 17.7027 58.3333 19.2498 58.3333H39.6665C41.2136 58.3333 42.6973 57.7187 43.7913 56.6248C44.8853 55.5308 45.4998 54.0471 45.4998 52.5V46.6667" stroke="white" stroke-width="6" stroke-linecap="round" stroke-linejoin="round"/>
<path d="M61.4445 35H23.5278M23.5278 35L32.2778 26.25M23.5278 35L32.2778 43.75" stroke="white" stroke-width="6" stroke-linecap="round" stroke-linejoin="round"/>
</svg>
