<svg width="70" height="70" viewBox="0 0 70 70" fill="none" xmlns="http://www.w3.org/2000/svg">
<path d="M35.0009 14.5833H45.2092C49.0769 14.5833 52.7863 16.1198 55.5212 18.8547C58.2561 21.5896 59.7925 25.2989 59.7925 29.1666C59.7925 33.0344 58.2561 36.7437 55.5212 39.4786C52.7863 42.2135 49.0769 43.75 45.2092 43.75H29.1675L17.4571 56.0787C16.4554 57.1334 15.1381 57.8339 13.7036 58.0747C12.2691 58.3154 10.7953 58.0835 9.50413 57.4137C8.21297 56.7439 7.17449 55.6727 6.54517 54.3613C5.91584 53.05 5.72979 51.5696 6.01503 50.1433L10.7809 26.3054C11.4424 22.9992 13.2291 20.0244 15.8369 17.8873C18.4447 15.7501 21.7125 14.5825 25.0842 14.5833H35.0009Z" stroke="white" stroke-width="5" stroke-linecap="round" stroke-linejoin="round"/>
<path d="M40.8335 43.75L52.7043 56.245C53.704 57.2969 55.0179 57.9963 56.4488 58.2381C57.8797 58.48 59.3504 58.2514 60.6404 57.5866C61.9303 56.9217 62.9698 55.8565 63.6031 54.5507C64.2363 53.245 64.429 51.7691 64.1523 50.3445L59.4856 26.3345" stroke="white" stroke-width="5" stroke-linecap="round" stroke-linejoin="round"/>
<path d="M23.3335 26.25V32.0833" stroke="white" stroke-width="5" stroke-linecap="round" stroke-linejoin="round"/>
<path d="M20.4165 29.1667H26.2498" stroke="white" stroke-width="5" stroke-linecap="round" stroke-linejoin="round"/>
<path d="M40.8335 29.1667H46.6668" stroke="white" stroke-width="5" stroke-linecap="round" stroke-linejoin="round"/>
</svg>
