<svg width="600" height="404" viewBox="0 0 600 404" fill="none" xmlns="http://www.w3.org/2000/svg">
<g clip-path="url(#clip0_149_790)">
<path d="M61.8596 222.375C61.565 222.375 61.2704 222.298 61.0085 222.145L0.852539 187.418C0.325929 187.115 0 186.551 0 185.943V116.482C0 115.873 0.324506 115.312 0.851116 115.009L61.0085 80.2796C61.8169 79.8042 62.863 80.0861 63.3341 80.9016C63.8052 81.7157 63.5262 82.7575 62.7107 83.2258L3.40731 117.467V184.958L61.8596 218.707L120.312 184.958V116.482C120.312 115.541 121.073 114.78 122.014 114.78C122.955 114.78 123.716 115.541 123.716 116.482V185.945C123.716 186.552 123.39 187.115 122.865 187.418L62.7093 222.145C62.4474 222.298 62.1542 222.375 61.8596 222.375Z" fill="url(#paint0_linear_149_790)"/>
<path d="M23.8896 129.33C23.6334 129.33 23.373 129.273 23.1267 129.151L0.939382 118.005C0.0996526 117.582 -0.240509 116.558 0.182202 115.717C0.604913 114.878 1.62255 114.532 2.46797 114.958L24.6553 126.104C25.4951 126.526 25.8352 127.551 25.4125 128.392C25.1136 128.987 24.513 129.33 23.8896 129.33Z" fill="url(#paint1_linear_149_790)"/>
<path d="M61.86 222.375C60.9192 222.375 60.1577 221.614 60.1577 220.673V195.851C60.1577 194.91 60.9192 194.149 61.86 194.149C62.8007 194.149 63.5622 194.91 63.5622 195.851V220.671C63.5622 221.614 62.8007 222.375 61.86 222.375Z" fill="url(#paint2_linear_149_790)"/>
<path d="M61.8584 196.154C61.5851 196.154 61.309 196.087 61.0528 195.951L23.0856 175.517C22.5334 175.221 22.1904 174.643 22.1904 174.016L22.189 127.626C22.189 126.686 22.9504 125.924 23.8926 125.924C24.8334 125.924 25.5948 126.686 25.5948 127.626L25.5963 172.997L62.6668 192.95C63.4951 193.396 63.8054 194.43 63.3599 195.259C63.0525 195.828 62.4647 196.154 61.8584 196.154Z" fill="url(#paint3_linear_149_790)"/>
<path d="M23.8941 129.33C23.3106 129.33 22.7413 129.031 22.4239 128.489C21.9485 127.681 22.2189 126.636 23.0288 126.161L60.9959 103.851C61.8058 103.373 62.8519 103.642 63.3272 104.456C63.804 105.264 63.5336 106.307 62.7223 106.784L24.7566 129.094C24.4848 129.253 24.1873 129.33 23.8941 129.33Z" fill="url(#paint4_linear_149_790)"/>
<path d="M24.1812 175.696C23.5977 175.696 23.0284 175.397 22.711 174.855C22.2356 174.046 22.506 173.002 23.3159 172.526L61.2859 150.217C62.0957 149.738 63.1418 150.007 63.6186 150.822C64.094 151.63 63.8236 152.673 63.0123 153.15L25.0437 175.46C24.7719 175.619 24.4744 175.696 24.1812 175.696Z" fill="url(#paint5_linear_149_790)"/>
<path d="M61.86 153.633C60.9192 153.633 60.1577 152.871 60.1577 151.929V105.317C60.1577 104.376 60.9192 103.615 61.86 103.615C62.8007 103.615 63.5622 104.376 63.5622 105.317V151.929C63.5622 152.871 62.8007 153.633 61.86 153.633Z" fill="url(#paint6_linear_149_790)"/>
<path d="M61.8596 222.375C61.565 222.375 61.2704 222.298 61.0085 222.145L0.852539 187.418C0.325929 187.115 0 186.551 0 185.943V116.482C0 115.541 0.76145 114.78 1.70365 114.78C2.64444 114.78 3.40589 115.541 3.40589 116.482V184.958L61.8582 218.707L120.31 184.958V117.467L61.0085 83.2258C60.1929 82.7561 59.914 81.7157 60.3851 80.9016C60.8533 80.0861 61.8966 79.8042 62.7107 80.2796L122.867 115.009C123.392 115.312 123.718 115.873 123.718 116.482V185.945C123.718 186.552 123.392 187.115 122.867 187.418L62.7107 222.145C62.4474 222.298 62.1542 222.375 61.8596 222.375Z" fill="url(#paint7_linear_149_790)"/>
<path d="M99.8325 129.33C99.2091 129.33 98.6085 128.987 98.3096 128.392C97.8897 127.551 98.2285 126.526 99.0668 126.104L121.251 114.958C122.1 114.535 123.114 114.878 123.538 115.717C123.958 116.558 123.62 117.583 122.781 118.005L100.597 129.151C100.351 129.273 100.09 129.33 99.8325 129.33Z" fill="url(#paint8_linear_149_790)"/>
<path d="M61.86 222.375C60.9192 222.375 60.1577 221.614 60.1577 220.673V194.452C60.1577 193.51 60.9192 192.748 61.86 192.748C62.8007 192.748 63.5622 193.51 63.5622 194.452V220.673C63.5622 221.614 62.8007 222.375 61.86 222.375Z" fill="url(#paint9_linear_149_790)"/>
<path d="M61.8608 196.154C61.2545 196.154 60.6667 195.828 60.3593 195.259C59.9138 194.431 60.224 193.396 61.0524 192.95L98.1215 172.998L98.1272 127.627C98.1272 126.686 98.8929 125.924 99.8308 125.924C100.772 125.924 101.533 126.686 101.533 127.627L101.526 174.017C101.526 174.641 101.184 175.221 100.631 175.517L62.6664 195.952C62.4102 196.087 62.1341 196.154 61.8608 196.154Z" fill="url(#paint10_linear_149_790)"/>
<path d="M99.8257 129.33C99.5325 129.33 99.2336 129.253 98.9646 129.094L60.996 106.784C60.1862 106.309 59.9158 105.264 60.3912 104.456C60.8694 103.64 61.9112 103.371 62.7225 103.851L100.69 126.161C101.501 126.636 101.771 127.681 101.295 128.489C100.976 129.031 100.411 129.33 99.8257 129.33Z" fill="url(#paint11_linear_149_790)"/>
<path d="M99.5392 175.696C99.246 175.696 98.9499 175.619 98.6809 175.46L60.7124 153.15C59.9025 152.673 59.6321 151.63 60.1075 150.822C60.5857 150.007 61.6275 149.737 62.4388 150.217L100.403 172.528C101.214 173.003 101.488 174.046 101.009 174.856C100.692 175.397 100.124 175.696 99.5392 175.696Z" fill="url(#paint12_linear_149_790)"/>
<path d="M61.86 153.633C60.9192 153.633 60.1577 152.871 60.1577 151.929V105.317C60.1577 104.376 60.9192 103.615 61.86 103.615C62.8007 103.615 63.5622 104.376 63.5622 105.317V151.929C63.5622 152.871 62.8007 153.633 61.86 153.633Z" fill="url(#paint13_linear_149_790)"/>
<path d="M186.289 123.951C191.915 123.951 196.482 128.518 196.482 134.144V144.908C196.482 148.659 193.791 151.839 190.04 152.41L189.551 152.491L190.04 152.573C193.791 153.225 196.482 156.405 196.482 160.075V170.92C196.482 176.465 191.915 181.031 186.289 181.031H156.118V123.951H186.289ZM183.435 165.294V161.787C183.435 160.238 182.212 159.096 180.744 159.096H169.165V167.984H180.744C182.212 167.984 183.435 166.761 183.435 165.294ZM183.435 143.277V139.771C183.435 138.303 182.212 137.08 180.744 137.08H169.165V145.968H180.744C182.212 145.968 183.435 144.745 183.435 143.277ZM234.562 167.984V123.951H247.609V170.92C247.609 176.546 243.043 181.031 237.416 181.031H217.357C211.73 181.031 207.246 176.546 207.246 170.92V123.951H220.292V167.984H234.562ZM259.351 123.951H299.797V137.08H286.097V181.031H273.051V137.08H259.351V123.951ZM311.539 123.951H351.984V137.08H338.285V181.031H325.238V137.08H311.539V123.951ZM399.605 137.08H376.773V145.968H393.163V159.015H376.773V167.984H399.605V181.031H363.726V123.951H399.605V137.08ZM441.518 123.951C447.145 123.951 451.711 128.518 451.711 134.144V155.59C451.711 159.912 449.02 163.581 445.269 165.049L451.711 181.031H437.849L431.651 165.783H424.394V181.031H411.347V123.951H441.518ZM435.973 152.654C437.441 152.654 438.664 151.513 438.664 150.045V139.689C438.664 138.221 437.441 137.08 435.973 137.08H424.394V152.654H435.973ZM499.087 137.08H476.255V145.968H492.646V159.015H476.255V181.031H463.209V123.951H499.087V137.08ZM523.876 123.951V167.984H544.914V181.031H510.83V123.951H523.876ZM579.081 144.745L588.458 123.951H601.505L585.604 159.259V181.031H572.558V159.259L556.657 123.951H569.785L579.081 144.745Z" fill="url(#paint14_linear_149_790)"/>
</g>
<defs>
<linearGradient id="paint0_linear_149_790" x1="0" y1="80.0483" x2="123.716" y2="80.0483" gradientUnits="userSpaceOnUse">
<stop stop-color="#8F5E25"/>
<stop offset="0.5" stop-color="#FBF4A1"/>
<stop offset="1" stop-color="#8F5E25"/>
</linearGradient>
<linearGradient id="paint1_linear_149_790" x1="0.000488281" y1="114.776" x2="25.5942" y2="114.776" gradientUnits="userSpaceOnUse">
<stop stop-color="#8F5E25"/>
<stop offset="0.5" stop-color="#FBF4A1"/>
<stop offset="1" stop-color="#8F5E25"/>
</linearGradient>
<linearGradient id="paint2_linear_149_790" x1="60.1577" y1="194.149" x2="63.5622" y2="194.149" gradientUnits="userSpaceOnUse">
<stop stop-color="#8F5E25"/>
<stop offset="0.5" stop-color="#FBF4A1"/>
<stop offset="1" stop-color="#8F5E25"/>
</linearGradient>
<linearGradient id="paint3_linear_149_790" x1="22.189" y1="125.924" x2="63.5634" y2="125.924" gradientUnits="userSpaceOnUse">
<stop stop-color="#8F5E25"/>
<stop offset="0.5" stop-color="#FBF4A1"/>
<stop offset="1" stop-color="#8F5E25"/>
</linearGradient>
<linearGradient id="paint4_linear_149_790" x1="22.1895" y1="103.614" x2="63.5626" y2="103.614" gradientUnits="userSpaceOnUse">
<stop stop-color="#8F5E25"/>
<stop offset="0.5" stop-color="#FBF4A1"/>
<stop offset="1" stop-color="#8F5E25"/>
</linearGradient>
<linearGradient id="paint5_linear_149_790" x1="22.4766" y1="149.98" x2="63.853" y2="149.98" gradientUnits="userSpaceOnUse">
<stop stop-color="#8F5E25"/>
<stop offset="0.5" stop-color="#FBF4A1"/>
<stop offset="1" stop-color="#8F5E25"/>
</linearGradient>
<linearGradient id="paint6_linear_149_790" x1="60.1577" y1="103.615" x2="63.5622" y2="103.615" gradientUnits="userSpaceOnUse">
<stop stop-color="#8F5E25"/>
<stop offset="0.5" stop-color="#FBF4A1"/>
<stop offset="1" stop-color="#8F5E25"/>
</linearGradient>
<linearGradient id="paint7_linear_149_790" x1="0" y1="80.0483" x2="123.718" y2="80.0483" gradientUnits="userSpaceOnUse">
<stop stop-color="#8F5E25"/>
<stop offset="0.5" stop-color="#FBF4A1"/>
<stop offset="1" stop-color="#8F5E25"/>
</linearGradient>
<linearGradient id="paint8_linear_149_790" x1="98.1294" y1="114.777" x2="123.719" y2="114.777" gradientUnits="userSpaceOnUse">
<stop stop-color="#8F5E25"/>
<stop offset="0.5" stop-color="#FBF4A1"/>
<stop offset="1" stop-color="#8F5E25"/>
</linearGradient>
<linearGradient id="paint9_linear_149_790" x1="60.1577" y1="192.748" x2="63.5622" y2="192.748" gradientUnits="userSpaceOnUse">
<stop stop-color="#8F5E25"/>
<stop offset="0.5" stop-color="#FBF4A1"/>
<stop offset="1" stop-color="#8F5E25"/>
</linearGradient>
<linearGradient id="paint10_linear_149_790" x1="60.1558" y1="125.924" x2="101.533" y2="125.924" gradientUnits="userSpaceOnUse">
<stop stop-color="#8F5E25"/>
<stop offset="0.5" stop-color="#FBF4A1"/>
<stop offset="1" stop-color="#8F5E25"/>
</linearGradient>
<linearGradient id="paint11_linear_149_790" x1="60.1567" y1="103.613" x2="101.53" y2="103.613" gradientUnits="userSpaceOnUse">
<stop stop-color="#8F5E25"/>
<stop offset="0.5" stop-color="#FBF4A1"/>
<stop offset="1" stop-color="#8F5E25"/>
</linearGradient>
<linearGradient id="paint12_linear_149_790" x1="59.873" y1="149.979" x2="101.245" y2="149.979" gradientUnits="userSpaceOnUse">
<stop stop-color="#8F5E25"/>
<stop offset="0.5" stop-color="#FBF4A1"/>
<stop offset="1" stop-color="#8F5E25"/>
</linearGradient>
<linearGradient id="paint13_linear_149_790" x1="60.1577" y1="103.615" x2="63.5622" y2="103.615" gradientUnits="userSpaceOnUse">
<stop stop-color="#8F5E25"/>
<stop offset="0.5" stop-color="#FBF4A1"/>
<stop offset="1" stop-color="#8F5E25"/>
</linearGradient>
<linearGradient id="paint14_linear_149_790" x1="156.118" y1="123.951" x2="601.505" y2="123.951" gradientUnits="userSpaceOnUse">
<stop stop-color="#8F5E25"/>
<stop offset="0.5" stop-color="#FBF4A1"/>
<stop offset="1" stop-color="#8F5E25"/>
</linearGradient>
<clipPath id="clip0_149_790">
<rect width="600" height="404" fill="white"/>
</clipPath>
</defs>
</svg>
