<svg width="70" height="70" viewBox="0 0 70 70" fill="none" xmlns="http://www.w3.org/2000/svg">
<path d="M8.75 58.3334L12.5417 46.9584C9.26463 42.1117 8.07915 36.3721 9.20564 30.8067C10.3321 25.2414 13.6939 20.2291 18.666 16.7017C23.638 13.1742 29.882 11.3718 36.2369 11.6295C42.5918 11.8871 48.6253 14.1874 53.2154 18.1025C57.8056 22.0176 60.64 27.2812 61.1919 32.9146C61.7437 38.5479 59.9753 44.1678 56.2155 48.7292C52.4556 53.2905 46.9603 56.4831 40.7511 57.7131C34.5419 58.9432 28.0414 58.1272 22.4583 55.4167L8.75 58.3334Z" stroke="white" stroke-width="6" stroke-linecap="round" stroke-linejoin="round"/>
<path d="M34.9995 35V35.0292" stroke="white" stroke-width="6" stroke-linecap="round" stroke-linejoin="round"/>
<path d="M23.3335 35V35.0292" stroke="white" stroke-width="6" stroke-linecap="round" stroke-linejoin="round"/>
<path d="M46.6665 35V35.0292" stroke="white" stroke-width="6" stroke-linecap="round" stroke-linejoin="round"/>
</svg>
